<svg width="82" height="21" viewBox="0 0 82 21" fill="none" xmlns="http://www.w3.org/2000/svg">
<path d="M4.86 14.39C4.8 15.254 4.524 15.938 4.032 16.442C3.54 16.934 2.934 17.18 2.214 17.18C1.494 17.18 0.816 17.12 0.18 17V14.57H0.99C1.218 14.57 1.404 14.492 1.548 14.336C1.704 14.18 1.788 13.988 1.8 13.76L2.34 4.4H12.33V17H9.09V6.92H5.31L4.86 14.39ZM20.5221 7.46H23.8521V17H20.7021V11.78L17.6421 17H14.3121V7.46H17.4621V12.68L20.5221 7.46ZM29.88 12.5C29.82 13.34 29.58 14.03 29.16 14.57H32.31V9.89H30.06L29.88 12.5ZM35.46 7.46V14.57H36.81V19.16H33.822L33.642 17H28.098L27.918 19.16H24.93V14.57H26.1C26.58 14.006 26.85 13.376 26.91 12.68L27.27 7.46H35.46ZM41.7677 9.53C41.2877 9.53 41.0477 9.77 41.0477 10.25V11.24H44.1077V10.25C44.1077 9.77 43.8677 9.53 43.3877 9.53H41.7677ZM46.8977 16.82C44.5817 17.06 42.4817 17.18 40.5977 17.18C39.7817 17.18 39.1277 16.934 38.6357 16.442C38.1437 15.95 37.8977 15.296 37.8977 14.48V10.16C37.8977 9.26 38.1497 8.558 38.6537 8.054C39.1697 7.538 39.8777 7.28 40.7777 7.28H44.3777C45.2777 7.28 45.9797 7.538 46.4837 8.054C46.9997 8.558 47.2577 9.26 47.2577 10.16V13.49H41.0477V14.21C41.0477 14.39 41.1077 14.54 41.2277 14.66C41.3477 14.78 41.4977 14.84 41.6777 14.84C42.8657 14.84 44.6057 14.75 46.8977 14.57V16.82ZM54.1807 9.89C53.5447 9.89 52.8247 10.01 52.0207 10.25V14.57H54.7207C55.2007 14.57 55.4407 14.33 55.4407 13.85V10.52C55.4407 10.34 55.3807 10.19 55.2607 10.07C55.1407 9.95 54.9907 9.89 54.8107 9.89H54.1807ZM52.0207 17V20.06H48.8707V7.46H51.6607L51.8407 8.36C52.4047 7.988 52.9807 7.718 53.5687 7.55C54.1687 7.37 54.6727 7.28 55.0807 7.28H55.8907C56.7067 7.28 57.3607 7.526 57.8527 8.018C58.3447 8.51 58.5907 9.164 58.5907 9.98V14.12C58.5907 15.02 58.3327 15.728 57.8167 16.244C57.3127 16.748 56.6107 17 55.7107 17H52.0207ZM59.8486 11.96V9.44H67.2286V11.96H59.8486Z" fill="url(#paint0_linear_5_3)"/>
<path d="M74.39 13.22L73.9176 13.3839L74.39 14.7454L74.8624 13.3839L74.39 13.22ZM77.45 4.4V3.9H77.0942L76.9776 4.23611L77.45 4.4ZM80.96 4.4L81.4276 4.57702L81.6839 3.9H80.96V4.4ZM76.19 17V17.5H76.5353L76.6576 17.177L76.19 17ZM72.59 17L72.1224 17.177L72.2447 17.5H72.59V17ZM67.82 4.4V3.9H67.0961L67.3524 4.57702L67.82 4.4ZM71.33 4.4L71.8024 4.23611L71.6858 3.9H71.33V4.4ZM74.8624 13.3839L77.9224 4.56389L76.9776 4.23611L73.9176 13.0561L74.8624 13.3839ZM77.45 4.9H80.96V3.9H77.45V4.9ZM80.4924 4.22297L75.7224 16.823L76.6576 17.177L81.4276 4.57702L80.4924 4.22297ZM76.19 16.5H72.59V17.5H76.19V16.5ZM73.0576 16.823L68.2876 4.22297L67.3524 4.57702L72.1224 17.177L73.0576 16.823ZM67.82 4.9H71.33V3.9H67.82V4.9ZM70.8576 4.56389L73.9176 13.3839L74.8624 13.0561L71.8024 4.23611L70.8576 4.56389Z" fill="#6F42C1"/>
<defs>
<linearGradient id="paint0_linear_5_3" x1="82" y1="42" x2="27.7894" y2="34.8698" gradientUnits="userSpaceOnUse">
<stop stop-color="#6F42C1"/>
</linearGradient>
</defs>
</svg>
