<svg xmlns="http://www.w3.org/2000/svg" width="104" height="103" viewBox="0 0 104 103" fill="none">
                                    <path d="M79.158 96.5625C75.2311 96.5625 69.715 95.1422 61.4549 90.5273C51.4103 84.8945 43.6411 79.6942 33.6509 69.7302C24.0188 60.1041 19.3315 53.8718 12.7713 41.9342C5.36009 28.4557 6.62345 21.3906 8.03567 18.371C9.71747 14.762 12.1999 12.6034 15.4086 10.4609C17.2311 9.26682 19.1598 8.24322 21.1702 7.40309C21.3714 7.31659 21.5584 7.23411 21.7254 7.15967C22.7212 6.71106 24.23 6.03311 26.1411 6.75733C27.4166 7.23612 28.5552 8.21582 30.3376 9.97608C33.9929 13.5811 38.988 21.6098 40.8307 25.5528C42.0679 28.2103 42.8867 29.9645 42.8887 31.932C42.8887 34.2354 41.73 36.0117 40.3238 37.9289C40.0602 38.289 39.7987 38.633 39.5452 38.967C38.0143 40.9787 37.6784 41.5601 37.8996 42.5981C38.3483 44.6843 41.6937 50.8944 47.1918 56.3804C52.6898 61.8664 58.7209 65.0006 60.8151 65.4472C61.8974 65.6786 62.4909 65.3285 64.567 63.7433C64.8647 63.516 65.1705 63.2806 65.4904 63.0452C67.6349 61.4499 69.3287 60.3214 71.5778 60.3214H71.5899C73.5473 60.3214 75.2231 61.1703 77.9992 62.5705C81.6203 64.3971 89.8905 69.3278 93.5176 72.9871C95.2819 74.7655 96.2656 75.9001 96.7464 77.1735C97.4707 79.0907 96.7887 80.5934 96.3441 81.5993C96.2697 81.7663 96.1872 81.9493 96.1007 82.1525C95.2539 84.1593 94.2242 86.0839 93.0248 87.902C90.8863 91.1007 88.7197 93.5771 85.1026 95.2609C83.2452 96.1394 81.2125 96.5845 79.158 96.5625Z" fill="url(#paint0_linear_457_1468)"></path>
                                    <defs>
                                      <linearGradient id="paint0_linear_457_1468" x1="52.0103" y1="6.43933" x2="52.0103" y2="96.5632" gradientUnits="userSpaceOnUse">
                                        <stop stop-color="#5C43F6"></stop>
                                        <stop offset="1" stop-color="#BC61F3"></stop>
                                      </linearGradient>
                                    </defs>
                                  </svg>